<svg id="svg2" xmlns="http://www.w3.org/2000/svg" xmlns:xlink="http://www.w3.org/1999/xlink" viewBox="0 0 1025.56 570.93"><defs><style>.cls-1{fill:none;}.cls-2{clip-path:url(#clip-path);}.cls-3{fill:#fff;}</style><clipPath id="clip-path" transform="translate(0 0)"><rect class="cls-1" x="-15.22" y="-122.53" width="1056" height="816"/></clipPath></defs><title>UO Logo White</title><g id="g10"><g id="g12"><g class="cls-2"><g id="g14"><g id="g20"><path id="path22" class="cls-3" d="M143.36,428.49c0,52.57-35.19,64.91-71.18,64.91C36,493.4,0,482.48,0,433.13V347.41H46.09v84.52c0,15.77,6.48,23.66,26.09,23.66,19.22,0,26.09-7.49,26.09-27.5V347.41h45.09Z" transform="translate(0 0)"/></g><g id="g24"><path id="path26" class="cls-3" d="M249.51,490.17l-42.66-75.23h-.61v75.23H160.75V347.41h50.34l43.07,76.43h.61V347.41h45.69V490.17Z" transform="translate(0 0)"/></g><g id="g28"><path id="path30" class="cls-3" d="M397.12,382.59V490.16H351.63V382.59H309.57V347.41H439.18v35.18Z" transform="translate(0 0)"/></g><path id="path32" class="cls-3" d="M448.28,347.41h45.5V490.16h-45.5Z" transform="translate(0 0)"/><g id="g34"><path id="path36" class="cls-3" d="M590.43,382.59V490.16h-45.5V382.59H502.87V347.41H632.48v35.18Z" transform="translate(0 0)"/></g><g id="g38"><path id="path40" class="cls-3" d="M641.59,490.17V347.41h45.49V454.78h61.06v35.39Z" transform="translate(0 0)"/></g><g id="g42"><path id="path44" class="cls-3" d="M760.07,490.17V347.41H862.59V382.6h-57v19.81h52.57v32.34H805.57V455h61.67v35.2Z" transform="translate(0 0)"/></g><g id="g46"><path id="path48" class="cls-3" d="M927.5,383.4v70.77h12.74c28.1,0,39.22-7.68,39.22-34.78,0-28.1-12.53-36-41.25-36ZM939,490.17H882V347.41h56.41c51.16,0,87.14,15.16,87.14,71,0,54.79-34.77,71.78-86.53,71.78" transform="translate(0 0)"/></g><g id="g50"><path id="path52" class="cls-3" d="M185.44,532c-9.06,0-11.57,5.72-11.57,13.24s2.51,13.25,11.37,13.25c9.27,0,11.63-5.72,11.63-13.31S194.29,532,185.44,532M157.9,545.28c0-17.29,10.39-25.79,27.89-25.79,18,0,27.11,8.5,27.11,25.66s-10,25.78-27.81,25.78-27.19-8.29-27.19-25.65" transform="translate(0 0)"/></g><g id="g54"><path id="path56" class="cls-3" d="M290.58,532.73v7.95h20.63v11.08H290.58v18H274.9V520.6h37.85v12.13Z" transform="translate(0 0)"/></g><g id="g58"><path id="path60" class="cls-3" d="M390.42,532.73v7.95h20.64v11.08H390.42v18H374.74V520.6h37.85v12.13Z" transform="translate(0 0)"/></g><g id="g62"><path id="path64" class="cls-3" d="M490.34,532.87V544h2.85c5.86,0,7.39-2.92,7.39-5.65s-1-5.43-6.55-5.43ZM504,569.81l-9.13-15.19c-1.47.14-3.07.14-4.53.14v15H474.58V520.6h20.29c12.13,0,21.81,4.6,21.81,17.14a16.07,16.07,0,0,1-7.1,13.19l13.24,18.88Z" transform="translate(0 0)"/></g><g id="g66"><path id="path68" class="cls-3" d="M612.35,532c-9.07,0-11.57,5.72-11.57,13.24s2.5,13.25,11.36,13.25c9.27,0,11.64-5.72,11.64-13.31S621.2,532,612.35,532m-27.54,13.31c0-17.29,10.39-25.79,27.88-25.79,18,0,27.12,8.5,27.12,25.66s-10,25.78-27.8,25.78-27.2-8.29-27.2-25.65" transform="translate(0 0)"/></g><g id="g70"><path id="path72" class="cls-3" d="M729.54,532.53h-.27l-4.11,14.84h8.36ZM740,569.82l-3.48-12.06H721.67l-4.19,12.06H701.8l18.54-49.21h20l15.83,49.21Z" transform="translate(0 0)"/></g><g id="g74"><path id="path76" class="cls-3" d="M833.85,533v24.4h4.39c9.69,0,13.52-2.65,13.52-12,0-9.69-4.32-12.41-14.21-12.41Zm4,36.8H818.16V520.6h19.45c17.64,0,30,5.23,30,24.47,0,18.89-12,24.74-29.83,24.74" transform="translate(0 0)"/></g><path id="path78" class="cls-3" d="M1023.65,402.15H1.91V435H1023.65Z" transform="translate(0 0)"/><g id="g80"><path id="path82" class="cls-3" d="M276.16,236.72l-21.07,4.47-3.73-13.37-22.24,22.27h-5.21l5.93-17.53-5-1.68L191.24,259l-8.09,1.49,97.63-99.55L284.44,171l6.77,3.64,5.58,12.26,6.14,3.91,2.78,6.13-8.54,9,2.5,6.81Zm4.69-113.89L95.26,312.07l374.67,1Zm-28,78.35,5.86,1.25,13.81-10.88,5.43,1.68,2.51-1.68,2.51-6.28-9.62-3.34Z" transform="translate(0 0)"/></g><g id="g84"><path id="path86" class="cls-3" d="M723.92,186.1l-17,13.75-37.48-37.7,36.31-37,5.73,12.38-21.89,26.84,3,2.62,24.6-17.2,9.12,19.62,4.89,4.09,6.95.92,2.09,5.85-3.66,7.59s.23,2.38.47,4.69l4.32,9.31,18,1.85,10,15.61-14.81,11,15.23,32.83-55.11-55.46,11.22-17.89ZM705.66,87,485.13,311.88l445.18,1.21Z" transform="translate(0 0)"/></g><g id="g88"><path id="path90" class="cls-3" d="M527.53,192.61l26,.94L548.91,241l-15-1.14-34-41.65-74.71,61.29-13.44-5.52,68.94-107.8h-9.24l-90.37,95.21-25.27-15.42-55.26,35.83L294.89,256,508.55,38.11,519.28,64.3l-26.16,39.05,4.63,3.47,30-21.93L535.56,104l16.7-4.19,18.56,24.35-19.6,18,3,7.44L522,184.32ZM508.31,0,202.92,311.41l616.54,1.68ZM389.43,179.38l7.7,3.47L437,146.43l-10.4-6.94Z" transform="translate(0 0)"/></g></g></g></g></g></svg>